<svg width="1100" height="330" viewBox="0 0 1100 330" fill="none" xmlns="http://www.w3.org/2000/svg">
<path d="M87 94H146V183.5H126.5V113.5H106V203.5H288V263.5H87V243H268.5V223.5H87V94Z" fill="#F66B0E" stroke="#F66B0E"/>
<path d="M190.25 93.1875V149.938C190.25 156.604 191.5 162.146 194 166.562C197.708 173.229 203.958 176.562 212.75 176.562C223.292 176.562 230.458 172.958 234.25 165.75C236.292 161.833 237.312 156.562 237.312 149.938V93.1875H249.938V144.75C249.938 156.042 248.417 164.729 245.375 170.812C239.792 181.896 229.25 187.438 213.75 187.438C198.25 187.438 187.729 181.896 182.188 170.812C179.146 164.729 177.625 156.042 177.625 144.75V93.1875H190.25ZM272.062 93.1875H284.625V185H272.062V93.1875ZM313 155.375C313.292 160.583 314.521 164.812 316.688 168.062C320.812 174.146 328.083 177.188 338.5 177.188C343.167 177.188 347.417 176.521 351.25 175.188C358.667 172.604 362.375 167.979 362.375 161.312C362.375 156.312 360.812 152.75 357.688 150.625C354.521 148.542 349.562 146.729 342.812 145.188L330.375 142.375C322.25 140.542 316.5 138.521 313.125 136.312C307.292 132.479 304.375 126.75 304.375 119.125C304.375 110.875 307.229 104.104 312.938 98.8125C318.646 93.5208 326.729 90.875 337.188 90.875C346.812 90.875 354.979 93.2083 361.688 97.875C368.438 102.5 371.812 109.917 371.812 120.125H360.125C359.5 115.208 358.167 111.438 356.125 108.812C352.333 104.021 345.896 101.625 336.812 101.625C329.479 101.625 324.208 103.167 321 106.25C317.792 109.333 316.188 112.917 316.188 117C316.188 121.5 318.062 124.792 321.812 126.875C324.271 128.208 329.833 129.875 338.5 131.875L351.375 134.812C357.583 136.229 362.375 138.167 365.75 140.625C371.583 144.917 374.5 151.146 374.5 159.312C374.5 169.479 370.792 176.75 363.375 181.125C356 185.5 347.417 187.688 337.625 187.688C326.208 187.688 317.271 184.771 310.812 178.938C304.354 173.146 301.188 165.292 301.312 155.375H313ZM427.062 93.1875H490.75V104.438H439.5V132.312H484.562V143.25H439.5V185H427.062V93.1875ZM491.062 171.375H504.125V185H491.062V171.375ZM561.125 93.1875H573.562V174.062H620.062V185H561.125V93.1875ZM679.5 147.375L665.562 106.812L650.75 147.375H679.5ZM659.062 93.1875H673.125L706.438 185H692.812L683.5 157.5H647.188L637.25 185H624.5L659.062 93.1875ZM720.562 93.1875H733.125V185H720.562V93.1875ZM820.188 93.1875V104.125H789.25V185H776.625V104.125H745.688V93.1875H820.188ZM869 90.6875C885.208 90.6875 897.208 95.8958 905 106.312C911.083 114.438 914.125 124.833 914.125 137.5C914.125 151.208 910.646 162.604 903.688 171.688C895.521 182.354 883.875 187.688 868.75 187.688C854.625 187.688 843.521 183.021 835.438 173.688C828.229 164.688 824.625 153.312 824.625 139.562C824.625 127.146 827.708 116.521 833.875 107.688C841.792 96.3542 853.5 90.6875 869 90.6875ZM870.25 176.562C881.208 176.562 889.125 172.646 894 164.812C898.917 156.938 901.375 147.896 901.375 137.688C901.375 126.896 898.542 118.208 892.875 111.625C887.25 105.042 879.542 101.75 869.75 101.75C860.25 101.75 852.5 105.021 846.5 111.562C840.5 118.062 837.5 127.667 837.5 140.375C837.5 150.542 840.062 159.125 845.188 166.125C850.354 173.083 858.708 176.562 870.25 176.562ZM929 93.1875H943.688L990.062 167.562V93.1875H1001.88V185H987.938L940.875 110.688V185H929V93.1875Z" fill="white"/>
</svg>
